# xmcd
#
# Track frame offsets: 
#        187
#        1125
#        13232
#        29465
#        46170
#        57762
#        70360
#        92427
#        123535
#        136795
#        151580
#        162890
#        172605
#        185450
#        197327
#        221315
#        236800
#        246770
#
# Disc length: 3512 seconds
#
# Revision: 4
# Processed by: cddbd v1.5.2PL0 Copyright (c) Steve Scherf et al.
# Submitted via: ExactAudioCopy v0.95a5
#
DISCID=d90db612
DTITLE=Kaiser_Mansfield - Slow Burn
DYEAR=1993
DGENRE=Blues
TTITLE0=Seen and Unseen
TTITLE1=Cover Me
TTITLE2=You're Gonna Need Somebody on Your Bond
TTITLE3=Threw it Away
TTITLE4=Witness Cloud
TTITLE5=God don't Lie
TTITLE6=Jesus on the Mainline
TTITLE7=Slow Burn
TTITLE8=Blind Willie Glickman
TTITLE9=On My Dyin' Bed
TTITLE10=Great White Throne
TTITLE11=Wonderful God
TTITLE12=This Little Light
TTITLE13=Ps. 99
TTITLE14=Been Down that Road
TTITLE15=Slidin'
TTITLE16=Blessed Be
TTITLE17=Long Way from My Home
EXTD=YEAR: 1993 ID3G: 0
EXTT0=
EXTT1=
EXTT2=
EXTT3=
EXTT4=
EXTT5=
EXTT6=
EXTT7=
EXTT8=
EXTT9=
EXTT10=
EXTT11=
EXTT12=
EXTT13=
EXTT14=
EXTT15=
EXTT16=
EXTT17=
PLAYORDER=
